<?xml version="1.0" encoding="utf-8"?>
<!-- Generator: Adobe Illustrator 22.0.1, SVG Export Plug-In . SVG Version: 6.00 Build 0)  -->
<svg version="1.1" id="Layer_1" xmlns="http://www.w3.org/2000/svg" xmlns:xlink="http://www.w3.org/1999/xlink" x="0px" y="0px"
	 viewBox="0 0 133.2 91.5" style="enable-background:new 0 0 133.2 91.5;" xml:space="preserve">
<style type="text/css">
	.st0{fill-rule:evenodd;clip-rule:evenodd;fill:#479EB7;}
	.st1{fill-rule:evenodd;clip-rule:evenodd;fill:#3D91A8;}
	.st2{fill-rule:evenodd;clip-rule:evenodd;fill:#FEFCFB;}
	.st3{fill:#FFFFFF;}
</style>
<g>
	<path class="st0" d="M48.2,86.5c-5,3.2-10.8,4.9-16.8,4.9C14,91.4,0,77.4,0,60.1c0-9.5,4.3-18.5,11.7-24.4C12.7,15.8,29.2,0,49.3,0
		c13.5,0,25.8,7.2,32.5,18.6c4.3-1.7,8.9-2.5,13.6-2.5c20.8,0,37.7,16.9,37.7,37.7c0,20.8-16.9,37.7-37.7,37.7
		c-6.7,0-13.3-1.8-19-5.1c-4.3,2.4-9.3,3.7-14.3,3.7C57.3,90.1,52.5,88.9,48.2,86.5L48.2,86.5z"/>
	<path class="st1" d="M48.3,81.3c-4.7,3.7-10.5,5.7-16.6,5.7c-14.9,0-27-12.1-27-27c0-9,4.4-17.2,11.6-22.2c0,0,0-0.1,0-0.1
		c0-18.4,15-33.4,33.4-33.4c13.6,0,25.3,8.1,30.5,19.8c4.7-2.5,10-3.8,15.5-3.8c18.4,0,33.4,15,33.4,33.4c0,18.4-15,33.4-33.4,33.4
		c-6.8,0-13.4-2.1-19-5.9c-4.1,2.9-9.1,4.5-14.3,4.5C57.3,85.8,52.4,84.2,48.3,81.3L48.3,81.3z"/>
	<path class="st2" d="M46.4,77.1C42,81.7,36,84.3,29.5,84.3c-12.9,0-23.4-10.5-23.4-23.4c0-8.5,4.6-16.3,11.9-20.4
		C18,39.8,18,39,18,38.2C18,21.7,31.4,8.3,47.9,8.3c13.9,0,25.6,9.5,28.9,22.5c5.2-3.9,11.5-6.1,18.1-6.1
		c16.5,0,29.9,13.4,29.9,29.9c0,16.5-13.4,29.9-29.9,29.9c-7.2,0-14-2.6-19.4-7.2c-3.9,3.7-9.1,5.7-14.5,5.7
		C55.5,82.9,50.3,80.8,46.4,77.1L46.4,77.1z"/>
	<path class="st0" d="M47.7,70.6c-3.7,5.3-9.8,8.7-16.7,8.7c-11.3,0-20.4-9.1-20.4-20.4c0-8.3,5-15.5,12.1-18.7
		c-0.2-1.3-0.3-2.7-0.3-4.1c0-14.9,12.1-26.9,26.9-26.9c14.4,0,26.1,11.3,26.9,25.5c4.9-5.6,12.1-9.1,20.2-9.1
		c14.9,0,26.9,12.1,26.9,26.9s-12.1,26.9-26.9,26.9c-7.7,0-14.6-3.2-19.6-8.4c-3.4,4.2-8.5,7-14.4,7C56.4,78,51.1,75.1,47.7,70.6
		L47.7,70.6z"/>
	<path class="st1" d="M30.3,60.1c-1.4,0-2.7-0.2-4-0.5c-1.2-0.3-2.3-0.8-3-1.3l1.9-3.6c0.8,0.5,1.8,1,2.7,1.2c1,0.3,1.9,0.4,2.9,0.4
		c0.9,0,1.6-0.1,2.1-0.4c0.5-0.3,0.8-0.6,0.8-1.1c0-0.4-0.2-0.7-0.7-0.9c-0.5-0.2-1.2-0.5-2.1-0.7c-1.1-0.3-2-0.6-2.7-0.9
		s-1.3-0.7-1.9-1.4c-0.5-0.6-0.8-1.4-0.8-2.4c0-1.2,0.3-2.3,1-3.2s1.6-1.6,2.8-2.1c1.2-0.5,2.6-0.7,4.3-0.7c1.2,0,2.3,0.1,3.4,0.4
		c1,0.2,1.9,0.6,2.7,1.1l-1.7,3.5c-0.7-0.4-1.4-0.7-2.2-0.9c-0.8-0.2-1.6-0.3-2.4-0.3c-0.9,0-1.7,0.2-2.2,0.5
		c-0.5,0.3-0.8,0.7-0.8,1.2c0,0.4,0.2,0.7,0.7,1c0.5,0.2,1.2,0.5,2.2,0.7c1.1,0.3,2,0.6,2.7,0.8c0.7,0.3,1.3,0.7,1.8,1.3
		c0.5,0.6,0.8,1.4,0.8,2.3c0,1.2-0.3,2.2-1,3.1c-0.7,0.9-1.6,1.6-2.8,2.1C33.4,59.9,31.9,60.1,30.3,60.1L30.3,60.1z M43,43h4.8
		l-3.4,16.8h-4.8L43,43L43,43z M58.2,43c2.2,0,3.9,0.5,5,1.4c1.2,0.9,1.8,2.3,1.8,4c0,1.4-0.3,2.6-1,3.7c-0.7,1.1-1.6,1.9-2.9,2.4
		c-1.3,0.6-2.7,0.9-4.4,0.9h-3.4l-0.9,4.4h-4.8L51.1,43H58.2L58.2,43z M56.9,51.7c1.1,0,1.9-0.2,2.4-0.7c0.6-0.5,0.9-1.2,0.9-2.1
		c0-0.7-0.2-1.2-0.7-1.5c-0.5-0.3-1.1-0.5-2-0.5h-2.5l-1,4.9H56.9L56.9,51.7z M81.5,60.1c-1.7,0-3.2-0.3-4.4-0.9
		c-1.3-0.6-2.2-1.5-2.9-2.6c-0.7-1.1-1-2.4-1-3.8c0-1.9,0.4-3.6,1.3-5.2c0.9-1.5,2.1-2.7,3.7-3.6c1.6-0.9,3.4-1.3,5.4-1.3
		c1.7,0,3.2,0.3,4.4,0.9c1.3,0.6,2.2,1.5,2.9,2.6c0.7,1.1,1,2.4,1,3.8c0,1.9-0.4,3.6-1.3,5.2c-0.9,1.5-2.1,2.7-3.7,3.6
		C85.3,59.7,83.5,60.1,81.5,60.1L81.5,60.1z M81.9,56.2c1.1,0,2-0.3,2.8-0.8c0.8-0.5,1.4-1.2,1.8-2.1c0.4-0.9,0.6-1.9,0.6-2.9
		c0-1.1-0.3-2-1-2.7c-0.7-0.7-1.7-1-2.9-1c-1.1,0-2,0.3-2.8,0.8c-0.8,0.5-1.4,1.2-1.8,2.1c-0.4,0.9-0.6,1.9-0.6,2.9
		c0,1.1,0.3,2,1,2.7C79.7,55.8,80.6,56.2,81.9,56.2L81.9,56.2z M103.9,50.7l5.6,9.1h-5.3l-3.9-6l-2.2,2l-0.8,4.1h-4.7L96.1,43h4.7
		l-1.4,6.9L107,43h5.6L103.9,50.7L103.9,50.7z"/>
	<path class="st3" d="M29.3,59c-1.4,0-2.7-0.2-4-0.5c-1.2-0.3-2.3-0.8-3-1.3l1.9-3.6c0.8,0.5,1.8,1,2.7,1.2c1,0.3,1.9,0.4,2.9,0.4
		c0.9,0,1.6-0.1,2.1-0.4c0.5-0.3,0.8-0.6,0.8-1.1c0-0.4-0.2-0.7-0.7-0.9c-0.5-0.2-1.2-0.5-2.1-0.7c-1.1-0.3-2-0.6-2.7-0.9
		c-0.7-0.3-1.3-0.7-1.9-1.4c-0.5-0.6-0.8-1.4-0.8-2.4c0-1.2,0.3-2.3,1-3.2c0.7-0.9,1.6-1.6,2.8-2.1c1.2-0.5,2.6-0.7,4.3-0.7
		c1.2,0,2.3,0.1,3.4,0.4c1,0.2,1.9,0.6,2.7,1.1l-1.7,3.5c-0.7-0.4-1.4-0.7-2.2-0.9c-0.8-0.2-1.6-0.3-2.4-0.3c-0.9,0-1.7,0.2-2.2,0.5
		c-0.5,0.3-0.8,0.7-0.8,1.2c0,0.4,0.2,0.7,0.7,1c0.5,0.2,1.2,0.5,2.2,0.7c1.1,0.3,2,0.6,2.7,0.8c0.7,0.3,1.3,0.7,1.8,1.3
		c0.5,0.6,0.8,1.4,0.8,2.3c0,1.2-0.3,2.2-1,3.1c-0.7,0.9-1.6,1.6-2.8,2.1C32.3,58.7,30.9,59,29.3,59L29.3,59z M41.9,41.8h4.8
		l-3.4,16.8h-4.8L41.9,41.8L41.9,41.8z M57.1,41.8c2.2,0,3.9,0.5,5,1.4c1.2,0.9,1.8,2.3,1.8,4c0,1.4-0.3,2.6-1,3.7
		c-0.7,1.1-1.6,1.9-2.9,2.4c-1.3,0.6-2.7,0.9-4.4,0.9h-3.4l-0.9,4.4h-4.8L50,41.8H57.1L57.1,41.8z M55.9,50.5c1.1,0,1.9-0.2,2.4-0.7
		c0.6-0.5,0.9-1.2,0.9-2.1c0-0.7-0.2-1.2-0.7-1.5c-0.5-0.3-1.1-0.5-2-0.5H54l-1,4.9H55.9L55.9,50.5z M80.4,59
		c-1.7,0-3.2-0.3-4.4-0.9c-1.3-0.6-2.2-1.5-2.9-2.6c-0.7-1.1-1-2.4-1-3.8c0-1.9,0.4-3.6,1.3-5.2c0.9-1.5,2.1-2.7,3.7-3.6
		c1.6-0.9,3.4-1.3,5.4-1.3c1.7,0,3.2,0.3,4.4,0.9c1.3,0.6,2.2,1.5,2.9,2.6c0.7,1.1,1,2.4,1,3.8c0,1.9-0.4,3.6-1.3,5.2
		c-0.9,1.5-2.1,2.7-3.7,3.6C84.3,58.5,82.5,59,80.4,59L80.4,59z M80.8,55c1.1,0,2-0.3,2.8-0.8c0.8-0.5,1.4-1.2,1.8-2.1
		c0.4-0.9,0.6-1.9,0.6-2.9c0-1.1-0.3-2-1-2.7c-0.7-0.7-1.7-1-2.9-1c-1.1,0-2,0.3-2.8,0.8c-0.8,0.5-1.4,1.2-1.8,2.1
		c-0.4,0.9-0.6,1.9-0.6,2.9c0,1.1,0.3,2,1,2.7C78.6,54.7,79.6,55,80.8,55L80.8,55z M102.9,49.6l5.6,9.1h-5.3l-3.9-6l-2.2,2l-0.8,4.1
		h-4.7L95,41.8h4.7l-1.4,6.9l7.6-6.9h5.6L102.9,49.6L102.9,49.6z"/>
</g>
</svg>
