<svg width="19" height="19" viewBox="0 0 19 19" fill="none" xmlns="http://www.w3.org/2000/svg">
<path d="M15.9856 0.913452H1.91827C0.839243 0.913452 0 1.79266 0 2.83172V16.899C0 17.9781 0.839243 18.8173 1.91827 18.8173H15.9856C17.0246 18.8173 17.9038 17.9781 17.9038 16.899V2.83172C17.9038 1.79266 17.0246 0.913452 15.9856 0.913452ZM15.9856 16.899H1.91827V2.83172H15.9856V16.899ZM14.5469 7.26772C14.7067 7.0679 14.7067 6.78815 14.5469 6.58833L13.6277 5.66917C13.4678 5.46935 13.1481 5.46935 12.9483 5.66917L7.31341 11.2641L4.91556 8.86628C4.71574 8.66646 4.436 8.66646 4.23618 8.86628L3.31701 9.74549C3.15716 9.94531 3.15716 10.265 3.31701 10.4249L6.95372 14.1016C7.15354 14.3014 7.4333 14.3014 7.63312 14.1016L14.5469 7.26772Z" fill="#C4C4C4"/>
</svg>
