<svg width="24" height="24" viewBox="0 0 24 24" fill="none" xmlns="http://www.w3.org/2000/svg">
<path d="M1.55769 1.91761L5.62501 1.00896C6.57692 0.79261 7.52884 1.26857 7.87499 2.13396L9.77885 6.54742C10.125 7.32627 9.90866 8.27818 9.21635 8.84069L7.48558 10.2686C8.69712 12.5186 10.601 14.3792 12.851 15.634L14.2789 13.9032C14.8413 13.2109 15.7933 12.9945 16.5721 13.3407L20.9856 15.2013C21.8509 15.5907 22.327 16.5426 22.1106 17.4945L21.202 21.5619C20.9856 22.4705 20.1635 23.0763 19.2548 23.0763C8.65385 23.0763 0 14.509 0 3.86473C0 2.95607 0.649037 2.13396 1.55769 1.91761ZM19.1682 20.9993L20.0769 17.1051L15.8365 15.2878L13.4135 18.2301C9.1298 16.1965 6.92308 13.9897 4.88943 9.70607L7.83173 7.283L6.01442 3.0426L2.07692 3.95126C2.1202 13.3407 9.77886 20.9561 19.1682 20.9993Z" fill="#CCCCD8"/>
</svg>
