<svg width="18" height="23" viewBox="0 0 18 23" fill="none" xmlns="http://www.w3.org/2000/svg">
<path d="M12.0043 13.4902C10.892 13.4902 10.3935 14.1536 8.59091 14.1536C6.75 14.1536 6.25142 13.4902 5.1392 13.4902C2.30114 13.4902 0 16.0196 0 19.0882V20.1248C0 21.2444 0.805399 22.1152 1.84091 22.1152H15.3409C16.3381 22.1152 17.1818 21.2444 17.1818 20.1248V19.0882C17.1818 16.0196 14.8423 13.4902 12.0043 13.4902ZM15.3409 20.1248H1.84091V19.0882C1.84091 17.0977 3.29829 15.4806 5.1392 15.4806C5.71449 15.4806 6.59659 16.144 8.59091 16.144C10.5469 16.144 11.429 15.4806 12.0043 15.4806C13.8452 15.4806 15.3409 17.0977 15.3409 19.0882V20.1248ZM8.59091 12.8267C11.6207 12.8267 14.1136 10.1729 14.1136 6.85555C14.1136 3.57972 11.6207 0.884399 8.59091 0.884399C5.52273 0.884399 3.06818 3.57972 3.06818 6.85555C3.06818 10.1729 5.52273 12.8267 8.59091 12.8267ZM8.59091 2.87478C10.5852 2.87478 12.2727 4.6993 12.2727 6.85555C12.2727 9.05327 10.5852 10.8363 8.59091 10.8363C6.55824 10.8363 4.90909 9.05327 4.90909 6.85555C4.90909 4.6993 6.55824 2.87478 8.59091 2.87478Z" fill="#CCCCD8"/>
</svg>
